<svg width="44" height="37" viewBox="0 0 44 37" fill="none" xmlns="http://www.w3.org/2000/svg">
<rect width="43.72" height="37.009" rx="6" fill="#3200DC"/>
<g clip-path="url(#clip0_489_1100)">
<path d="M31.3252 19.6797H27.5327V23.1159H31.3252V19.6797Z" fill="white" fill-opacity="0.7"/>
<path d="M21.164 23.2819L18.2483 26.5465L15.8158 17.5139L17.7148 10.4624L21.164 23.2819Z" fill="white" fill-opacity="0.7"/>
<path d="M18.2781 26.5465C20.5166 26.5465 22.4754 25.0522 23.0537 22.9032L26.4022 10.4624H22.606L18.2762 26.5465H18.2781Z" fill="white"/>
<path d="M13.3851 26.5465L17.7148 10.4624H13.9186L10.6298 22.6812L13.3851 26.5465Z" fill="white" fill-opacity="0.85"/>
<path d="M13.3552 26.5464C11.1166 26.5464 9.15786 25.0522 8.57956 22.9031L5.23105 10.4623H9.02728L13.357 26.5464H13.3552Z" fill="white"/>
<path d="M38.4886 10.4624V13.8352H27.5327C28.1166 11.5929 30.1145 10.4624 32.3232 10.4624H38.4886Z" fill="white" fill-opacity="0.85"/>
<path d="M38.4886 26.4663V23.0935H27.5327C28.1166 25.3358 30.1145 26.4663 32.3232 26.4663H38.4886Z" fill="white"/>
<path d="M30.3495 16.7659H35.9496V19.6797H27.5345V19.5809C27.5345 18.0269 28.7955 16.7659 30.3495 16.7659Z" fill="white"/>
</g>
<defs>
<clipPath id="clip0_489_1100">
<rect width="33.2575" height="16.0841" fill="white" transform="translate(5.23123 10.4625)"/>
</clipPath>
</defs>
</svg>
